<mxfile host="65bd71144e">
    <diagram id="03F6VEOOzAswHKV4Qcjv" name="Page-1">
        <mxGraphModel dx="305" dy="475" grid="1" gridSize="10" guides="1" tooltips="1" connect="1" arrows="1" fold="1" page="1" pageScale="1" pageWidth="1100" pageHeight="850" math="0" shadow="0">
            <root>
                <mxCell id="0"/>
                <mxCell id="1" parent="0"/>
              
    <mxCell
    id="2"
    value="[object Object],[object Object],[object Object],false,Categories,,,[object Object],,[object Object],[object Set],[object Object],false,[object Object],[object Object],false,false,[object Set],[object Set],[object Object],[object Object],[object Object],[object Object],false,false,false,[object Object],id,id,id,true,(key) => this.primaryKeyAttributes.includes(key),[object Object],id,[object Object],defaultScope"
    style="shape=table;
    startSize=30;
    container=1;
    collapsible=0;
    childLayout=tableLayout;
    fixedRows=1;
    rowLines=0;
    fontStyle=0;
    strokeColor=default;
    fontSize=16;"
    parent="1"
    vertex="1">
      <mxGeometry x="40" y="40" width="475" height="130" as="geometry"/>
    </mxCell>
    
    <mxCell
      id="3"
      value=""
        style="
        shape=tableRow;
        horizontal=0;
        startSize=0;
        swimlaneHead=0;
        swimlaneBody=0;
        top=0;
        left=0;
        bottom=0;
        right=0;
        collapsible=0;
        dropTarget=0;
        fillColor=none;
        points=[[0,0.5],[1,0.5]];
        portConstraint=eastwest;
        strokeColor=inherit;
        fontSize=16;"
        parent="2"
        vertex="1">
      <mxGeometry y="40" width="475" height="30" as="geometry"/>
    </mxCell>
    
    <mxCell
      id="4"
      value="PK"
      style="shape=partialRectangle;
      html=1;
      whiteSpace=wrap;
      connectable=0;
      fillColor=none;
      top=0;
      left=0;
      bottom=0;
      right=0;
      overflow=hidden;
      pointerEvents=1;
      strokeColor=inherit;
      fontSize=16;"
      parent="3"
      vertex="1">
      <mxGeometry width="40" height="30" as="geometry">
        <mxRectangle width="40" height="30" as="alternateBounds"/>
      </mxGeometry>
    </mxCell>
    
      <mxCell
        id="5"
        value="INTEGER  AUTO INCREMENT"
        style="
          shape=partialRectangle;
          html=1;
          whiteSpace=wrap;
          connectable=0;
          fillColor=none;
          top=0;
          left=0;
          bottom=0;
          right=0;
          align=left;
          spacingLeft=6;
          overflow=hidden;
          strokeColor=inherit;
          fontSize=16;"
          parent="3"
          vertex="1">
            <mxGeometry x="40" width="435" height="30" as="geometry">
              <mxRectangle width="435" height="30" as="alternateBounds"/>
            </mxGeometry>
       </mxCell>
    <mxCell
      id="6"
      value=""
        style="
        shape=tableRow;
        horizontal=0;
        startSize=0;
        swimlaneHead=0;
        swimlaneBody=0;
        top=0;
        left=0;
        bottom=0;
        right=0;
        collapsible=0;
        dropTarget=0;
        fillColor=none;
        points=[[0,0.5],[1,0.5]];
        portConstraint=eastwest;
        strokeColor=inherit;
        fontSize=16;"
        parent="2"
        vertex="1">
      <mxGeometry y="70" width="475" height="30" as="geometry"/>
    </mxCell>
    
    <mxCell
      id="7"
      value=""
      style="shape=partialRectangle;
      html=1;
      whiteSpace=wrap;
      connectable=0;
      fillColor=none;
      top=0;
      left=0;
      bottom=0;
      right=0;
      overflow=hidden;
      pointerEvents=1;
      strokeColor=inherit;
      fontSize=16;"
      parent="6"
      vertex="1">
      <mxGeometry width="40" height="30" as="geometry">
        <mxRectangle width="40" height="30" as="alternateBounds"/>
      </mxGeometry>
    </mxCell>
    
      <mxCell
        id="8"
        value="STRING NOT NULL"
        style="
          shape=partialRectangle;
          html=1;
          whiteSpace=wrap;
          connectable=0;
          fillColor=none;
          top=0;
          left=0;
          bottom=0;
          right=0;
          align=left;
          spacingLeft=6;
          overflow=hidden;
          strokeColor=inherit;
          fontSize=16;"
          parent="6"
          vertex="1">
            <mxGeometry x="40" width="435" height="30" as="geometry">
              <mxRectangle width="435" height="30" as="alternateBounds"/>
            </mxGeometry>
       </mxCell>
    <mxCell
      id="9"
      value=""
        style="
        shape=tableRow;
        horizontal=0;
        startSize=0;
        swimlaneHead=0;
        swimlaneBody=0;
        top=0;
        left=0;
        bottom=0;
        right=0;
        collapsible=0;
        dropTarget=0;
        fillColor=none;
        points=[[0,0.5],[1,0.5]];
        portConstraint=eastwest;
        strokeColor=inherit;
        fontSize=16;"
        parent="2"
        vertex="1">
      <mxGeometry y="100" width="475" height="30" as="geometry"/>
    </mxCell>
    
    <mxCell
      id="10"
      value=""
      style="shape=partialRectangle;
      html=1;
      whiteSpace=wrap;
      connectable=0;
      fillColor=none;
      top=0;
      left=0;
      bottom=0;
      right=0;
      overflow=hidden;
      pointerEvents=1;
      strokeColor=inherit;
      fontSize=16;"
      parent="9"
      vertex="1">
      <mxGeometry width="40" height="30" as="geometry">
        <mxRectangle width="40" height="30" as="alternateBounds"/>
      </mxGeometry>
    </mxCell>
    
      <mxCell
        id="11"
        value="STRING NOT NULL"
        style="
          shape=partialRectangle;
          html=1;
          whiteSpace=wrap;
          connectable=0;
          fillColor=none;
          top=0;
          left=0;
          bottom=0;
          right=0;
          align=left;
          spacingLeft=6;
          overflow=hidden;
          strokeColor=inherit;
          fontSize=16;"
          parent="9"
          vertex="1">
            <mxGeometry x="40" width="435" height="30" as="geometry">
              <mxRectangle width="435" height="30" as="alternateBounds"/>
            </mxGeometry>
       </mxCell>
    
    <mxCell
    id="12"
    value="[object Object],[object Object],[object Object],false,DeliveryTimes,,,[object Object],,[object Object],[object Set],[object Object],false,[object Object],[object Object],false,false,[object Set],[object Set],[object Object],[object Object],[object Object],[object Object],false,false,true,[object Object],id,id,id,true,(key) => this.primaryKeyAttributes.includes(key),[object Object],id,[object Object],defaultScope"
    style="shape=table;
    startSize=30;
    container=1;
    collapsible=0;
    childLayout=tableLayout;
    fixedRows=1;
    rowLines=0;
    fontStyle=0;
    strokeColor=default;
    fontSize=16;"
    parent="1"
    vertex="1">
      <mxGeometry x="40" y="140" width="425" height="160" as="geometry"/>
    </mxCell>
    
    <mxCell
      id="13"
      value=""
        style="
        shape=tableRow;
        horizontal=0;
        startSize=0;
        swimlaneHead=0;
        swimlaneBody=0;
        top=0;
        left=0;
        bottom=0;
        right=0;
        collapsible=0;
        dropTarget=0;
        fillColor=none;
        points=[[0,0.5],[1,0.5]];
        portConstraint=eastwest;
        strokeColor=inherit;
        fontSize=16;"
        parent="12"
        vertex="1">
      <mxGeometry y="40" width="425" height="30" as="geometry"/>
    </mxCell>
    
    <mxCell
      id="14"
      value="PK"
      style="shape=partialRectangle;
      html=1;
      whiteSpace=wrap;
      connectable=0;
      fillColor=none;
      top=0;
      left=0;
      bottom=0;
      right=0;
      overflow=hidden;
      pointerEvents=1;
      strokeColor=inherit;
      fontSize=16;"
      parent="13"
      vertex="1">
      <mxGeometry width="40" height="30" as="geometry">
        <mxRectangle width="40" height="30" as="alternateBounds"/>
      </mxGeometry>
    </mxCell>
    
      <mxCell
        id="15"
        value="INTEGER  AUTO INCREMENT"
        style="
          shape=partialRectangle;
          html=1;
          whiteSpace=wrap;
          connectable=0;
          fillColor=none;
          top=0;
          left=0;
          bottom=0;
          right=0;
          align=left;
          spacingLeft=6;
          overflow=hidden;
          strokeColor=inherit;
          fontSize=16;"
          parent="13"
          vertex="1">
            <mxGeometry x="40" width="385" height="30" as="geometry">
              <mxRectangle width="385" height="30" as="alternateBounds"/>
            </mxGeometry>
       </mxCell>
    <mxCell
      id="16"
      value=""
        style="
        shape=tableRow;
        horizontal=0;
        startSize=0;
        swimlaneHead=0;
        swimlaneBody=0;
        top=0;
        left=0;
        bottom=0;
        right=0;
        collapsible=0;
        dropTarget=0;
        fillColor=none;
        points=[[0,0.5],[1,0.5]];
        portConstraint=eastwest;
        strokeColor=inherit;
        fontSize=16;"
        parent="12"
        vertex="1">
      <mxGeometry y="70" width="425" height="30" as="geometry"/>
    </mxCell>
    
    <mxCell
      id="17"
      value=""
      style="shape=partialRectangle;
      html=1;
      whiteSpace=wrap;
      connectable=0;
      fillColor=none;
      top=0;
      left=0;
      bottom=0;
      right=0;
      overflow=hidden;
      pointerEvents=1;
      strokeColor=inherit;
      fontSize=16;"
      parent="16"
      vertex="1">
      <mxGeometry width="40" height="30" as="geometry">
        <mxRectangle width="40" height="30" as="alternateBounds"/>
      </mxGeometry>
    </mxCell>
    
      <mxCell
        id="18"
        value="INTEGER NOT NULL"
        style="
          shape=partialRectangle;
          html=1;
          whiteSpace=wrap;
          connectable=0;
          fillColor=none;
          top=0;
          left=0;
          bottom=0;
          right=0;
          align=left;
          spacingLeft=6;
          overflow=hidden;
          strokeColor=inherit;
          fontSize=16;"
          parent="16"
          vertex="1">
            <mxGeometry x="40" width="385" height="30" as="geometry">
              <mxRectangle width="385" height="30" as="alternateBounds"/>
            </mxGeometry>
       </mxCell>
    <mxCell
      id="19"
      value=""
        style="
        shape=tableRow;
        horizontal=0;
        startSize=0;
        swimlaneHead=0;
        swimlaneBody=0;
        top=0;
        left=0;
        bottom=0;
        right=0;
        collapsible=0;
        dropTarget=0;
        fillColor=none;
        points=[[0,0.5],[1,0.5]];
        portConstraint=eastwest;
        strokeColor=inherit;
        fontSize=16;"
        parent="12"
        vertex="1">
      <mxGeometry y="100" width="425" height="30" as="geometry"/>
    </mxCell>
    
    <mxCell
      id="20"
      value=""
      style="shape=partialRectangle;
      html=1;
      whiteSpace=wrap;
      connectable=0;
      fillColor=none;
      top=0;
      left=0;
      bottom=0;
      right=0;
      overflow=hidden;
      pointerEvents=1;
      strokeColor=inherit;
      fontSize=16;"
      parent="19"
      vertex="1">
      <mxGeometry width="40" height="30" as="geometry">
        <mxRectangle width="40" height="30" as="alternateBounds"/>
      </mxGeometry>
    </mxCell>
    
      <mxCell
        id="21"
        value="INTEGER NOT NULL"
        style="
          shape=partialRectangle;
          html=1;
          whiteSpace=wrap;
          connectable=0;
          fillColor=none;
          top=0;
          left=0;
          bottom=0;
          right=0;
          align=left;
          spacingLeft=6;
          overflow=hidden;
          strokeColor=inherit;
          fontSize=16;"
          parent="19"
          vertex="1">
            <mxGeometry x="40" width="385" height="30" as="geometry">
              <mxRectangle width="385" height="30" as="alternateBounds"/>
            </mxGeometry>
       </mxCell>
    <mxCell
      id="22"
      value=""
        style="
        shape=tableRow;
        horizontal=0;
        startSize=0;
        swimlaneHead=0;
        swimlaneBody=0;
        top=0;
        left=0;
        bottom=0;
        right=0;
        collapsible=0;
        dropTarget=0;
        fillColor=none;
        points=[[0,0.5],[1,0.5]];
        portConstraint=eastwest;
        strokeColor=inherit;
        fontSize=16;"
        parent="12"
        vertex="1">
      <mxGeometry y="130" width="425" height="30" as="geometry"/>
    </mxCell>
    
    <mxCell
      id="23"
      value=""
      style="shape=partialRectangle;
      html=1;
      whiteSpace=wrap;
      connectable=0;
      fillColor=none;
      top=0;
      left=0;
      bottom=0;
      right=0;
      overflow=hidden;
      pointerEvents=1;
      strokeColor=inherit;
      fontSize=16;"
      parent="22"
      vertex="1">
      <mxGeometry width="40" height="30" as="geometry">
        <mxRectangle width="40" height="30" as="alternateBounds"/>
      </mxGeometry>
    </mxCell>
    
      <mxCell
        id="24"
        value="INTEGER NOT NULL"
        style="
          shape=partialRectangle;
          html=1;
          whiteSpace=wrap;
          connectable=0;
          fillColor=none;
          top=0;
          left=0;
          bottom=0;
          right=0;
          align=left;
          spacingLeft=6;
          overflow=hidden;
          strokeColor=inherit;
          fontSize=16;"
          parent="22"
          vertex="1">
            <mxGeometry x="40" width="385" height="30" as="geometry">
              <mxRectangle width="385" height="30" as="alternateBounds"/>
            </mxGeometry>
       </mxCell>
    
    <mxCell
    id="25"
    value="[object Object],[object Object],[object Object],false,Incomes,,,[object Object],,[object Object],[object Set],[object Object],false,[object Object],[object Object],false,true,[object Set],[object Set],[object Object],[object Object],[object Object],[object Object],false,false,false,[object Object],id,id,id,true,(key) => this.primaryKeyAttributes.includes(key),[object Object],id,[object Object],defaultScope"
    style="shape=table;
    startSize=30;
    container=1;
    collapsible=0;
    childLayout=tableLayout;
    fixedRows=1;
    rowLines=0;
    fontStyle=0;
    strokeColor=default;
    fontSize=16;"
    parent="1"
    vertex="1">
      <mxGeometry x="40" y="240" width="400" height="130" as="geometry"/>
    </mxCell>
    
    <mxCell
      id="26"
      value=""
        style="
        shape=tableRow;
        horizontal=0;
        startSize=0;
        swimlaneHead=0;
        swimlaneBody=0;
        top=0;
        left=0;
        bottom=0;
        right=0;
        collapsible=0;
        dropTarget=0;
        fillColor=none;
        points=[[0,0.5],[1,0.5]];
        portConstraint=eastwest;
        strokeColor=inherit;
        fontSize=16;"
        parent="25"
        vertex="1">
      <mxGeometry y="40" width="400" height="30" as="geometry"/>
    </mxCell>
    
    <mxCell
      id="27"
      value="PK"
      style="shape=partialRectangle;
      html=1;
      whiteSpace=wrap;
      connectable=0;
      fillColor=none;
      top=0;
      left=0;
      bottom=0;
      right=0;
      overflow=hidden;
      pointerEvents=1;
      strokeColor=inherit;
      fontSize=16;"
      parent="26"
      vertex="1">
      <mxGeometry width="40" height="30" as="geometry">
        <mxRectangle width="40" height="30" as="alternateBounds"/>
      </mxGeometry>
    </mxCell>
    
      <mxCell
        id="28"
        value="INTEGER  AUTO INCREMENT"
        style="
          shape=partialRectangle;
          html=1;
          whiteSpace=wrap;
          connectable=0;
          fillColor=none;
          top=0;
          left=0;
          bottom=0;
          right=0;
          align=left;
          spacingLeft=6;
          overflow=hidden;
          strokeColor=inherit;
          fontSize=16;"
          parent="26"
          vertex="1">
            <mxGeometry x="40" width="360" height="30" as="geometry">
              <mxRectangle width="360" height="30" as="alternateBounds"/>
            </mxGeometry>
       </mxCell>
    <mxCell
      id="29"
      value=""
        style="
        shape=tableRow;
        horizontal=0;
        startSize=0;
        swimlaneHead=0;
        swimlaneBody=0;
        top=0;
        left=0;
        bottom=0;
        right=0;
        collapsible=0;
        dropTarget=0;
        fillColor=none;
        points=[[0,0.5],[1,0.5]];
        portConstraint=eastwest;
        strokeColor=inherit;
        fontSize=16;"
        parent="25"
        vertex="1">
      <mxGeometry y="70" width="400" height="30" as="geometry"/>
    </mxCell>
    
    <mxCell
      id="30"
      value=""
      style="shape=partialRectangle;
      html=1;
      whiteSpace=wrap;
      connectable=0;
      fillColor=none;
      top=0;
      left=0;
      bottom=0;
      right=0;
      overflow=hidden;
      pointerEvents=1;
      strokeColor=inherit;
      fontSize=16;"
      parent="29"
      vertex="1">
      <mxGeometry width="40" height="30" as="geometry">
        <mxRectangle width="40" height="30" as="alternateBounds"/>
      </mxGeometry>
    </mxCell>
    
      <mxCell
        id="31"
        value="DATE "
        style="
          shape=partialRectangle;
          html=1;
          whiteSpace=wrap;
          connectable=0;
          fillColor=none;
          top=0;
          left=0;
          bottom=0;
          right=0;
          align=left;
          spacingLeft=6;
          overflow=hidden;
          strokeColor=inherit;
          fontSize=16;"
          parent="29"
          vertex="1">
            <mxGeometry x="40" width="360" height="30" as="geometry">
              <mxRectangle width="360" height="30" as="alternateBounds"/>
            </mxGeometry>
       </mxCell>
    <mxCell
      id="32"
      value=""
        style="
        shape=tableRow;
        horizontal=0;
        startSize=0;
        swimlaneHead=0;
        swimlaneBody=0;
        top=0;
        left=0;
        bottom=0;
        right=0;
        collapsible=0;
        dropTarget=0;
        fillColor=none;
        points=[[0,0.5],[1,0.5]];
        portConstraint=eastwest;
        strokeColor=inherit;
        fontSize=16;"
        parent="25"
        vertex="1">
      <mxGeometry y="100" width="400" height="30" as="geometry"/>
    </mxCell>
    
    <mxCell
      id="33"
      value=""
      style="shape=partialRectangle;
      html=1;
      whiteSpace=wrap;
      connectable=0;
      fillColor=none;
      top=0;
      left=0;
      bottom=0;
      right=0;
      overflow=hidden;
      pointerEvents=1;
      strokeColor=inherit;
      fontSize=16;"
      parent="32"
      vertex="1">
      <mxGeometry width="40" height="30" as="geometry">
        <mxRectangle width="40" height="30" as="alternateBounds"/>
      </mxGeometry>
    </mxCell>
    
      <mxCell
        id="34"
        value="DECIMAL "
        style="
          shape=partialRectangle;
          html=1;
          whiteSpace=wrap;
          connectable=0;
          fillColor=none;
          top=0;
          left=0;
          bottom=0;
          right=0;
          align=left;
          spacingLeft=6;
          overflow=hidden;
          strokeColor=inherit;
          fontSize=16;"
          parent="32"
          vertex="1">
            <mxGeometry x="40" width="360" height="30" as="geometry">
              <mxRectangle width="360" height="30" as="alternateBounds"/>
            </mxGeometry>
       </mxCell>
    
    <mxCell
    id="35"
    value="[object Object],[object Object],[object Object],false,Products,,,[object Object],,[object Object],[object Set],[object Object],false,[object Object],[object Object],false,false,[object Set],[object Set],[object Object],[object Object],[object Object],[object Object],false,false,true,[object Object],id,id,id,true,(key) => this.primaryKeyAttributes.includes(key),[object Object],id,[object Object],defaultScope"
    style="shape=table;
    startSize=30;
    container=1;
    collapsible=0;
    childLayout=tableLayout;
    fixedRows=1;
    rowLines=0;
    fontStyle=0;
    strokeColor=default;
    fontSize=16;"
    parent="1"
    vertex="1">
      <mxGeometry x="40" y="340" width="475" height="280" as="geometry"/>
    </mxCell>
    
    <mxCell
      id="36"
      value=""
        style="
        shape=tableRow;
        horizontal=0;
        startSize=0;
        swimlaneHead=0;
        swimlaneBody=0;
        top=0;
        left=0;
        bottom=0;
        right=0;
        collapsible=0;
        dropTarget=0;
        fillColor=none;
        points=[[0,0.5],[1,0.5]];
        portConstraint=eastwest;
        strokeColor=inherit;
        fontSize=16;"
        parent="35"
        vertex="1">
      <mxGeometry y="40" width="475" height="30" as="geometry"/>
    </mxCell>
    
    <mxCell
      id="37"
      value="PK"
      style="shape=partialRectangle;
      html=1;
      whiteSpace=wrap;
      connectable=0;
      fillColor=none;
      top=0;
      left=0;
      bottom=0;
      right=0;
      overflow=hidden;
      pointerEvents=1;
      strokeColor=inherit;
      fontSize=16;"
      parent="36"
      vertex="1">
      <mxGeometry width="40" height="30" as="geometry">
        <mxRectangle width="40" height="30" as="alternateBounds"/>
      </mxGeometry>
    </mxCell>
    
      <mxCell
        id="38"
        value="INTEGER  AUTO INCREMENT"
        style="
          shape=partialRectangle;
          html=1;
          whiteSpace=wrap;
          connectable=0;
          fillColor=none;
          top=0;
          left=0;
          bottom=0;
          right=0;
          align=left;
          spacingLeft=6;
          overflow=hidden;
          strokeColor=inherit;
          fontSize=16;"
          parent="36"
          vertex="1">
            <mxGeometry x="40" width="435" height="30" as="geometry">
              <mxRectangle width="435" height="30" as="alternateBounds"/>
            </mxGeometry>
       </mxCell>
    <mxCell
      id="39"
      value=""
        style="
        shape=tableRow;
        horizontal=0;
        startSize=0;
        swimlaneHead=0;
        swimlaneBody=0;
        top=0;
        left=0;
        bottom=0;
        right=0;
        collapsible=0;
        dropTarget=0;
        fillColor=none;
        points=[[0,0.5],[1,0.5]];
        portConstraint=eastwest;
        strokeColor=inherit;
        fontSize=16;"
        parent="35"
        vertex="1">
      <mxGeometry y="70" width="475" height="30" as="geometry"/>
    </mxCell>
    
    <mxCell
      id="40"
      value=""
      style="shape=partialRectangle;
      html=1;
      whiteSpace=wrap;
      connectable=0;
      fillColor=none;
      top=0;
      left=0;
      bottom=0;
      right=0;
      overflow=hidden;
      pointerEvents=1;
      strokeColor=inherit;
      fontSize=16;"
      parent="39"
      vertex="1">
      <mxGeometry width="40" height="30" as="geometry">
        <mxRectangle width="40" height="30" as="alternateBounds"/>
      </mxGeometry>
    </mxCell>
    
      <mxCell
        id="41"
        value="STRING NOT NULL"
        style="
          shape=partialRectangle;
          html=1;
          whiteSpace=wrap;
          connectable=0;
          fillColor=none;
          top=0;
          left=0;
          bottom=0;
          right=0;
          align=left;
          spacingLeft=6;
          overflow=hidden;
          strokeColor=inherit;
          fontSize=16;"
          parent="39"
          vertex="1">
            <mxGeometry x="40" width="435" height="30" as="geometry">
              <mxRectangle width="435" height="30" as="alternateBounds"/>
            </mxGeometry>
       </mxCell>
    <mxCell
      id="42"
      value=""
        style="
        shape=tableRow;
        horizontal=0;
        startSize=0;
        swimlaneHead=0;
        swimlaneBody=0;
        top=0;
        left=0;
        bottom=0;
        right=0;
        collapsible=0;
        dropTarget=0;
        fillColor=none;
        points=[[0,0.5],[1,0.5]];
        portConstraint=eastwest;
        strokeColor=inherit;
        fontSize=16;"
        parent="35"
        vertex="1">
      <mxGeometry y="100" width="475" height="30" as="geometry"/>
    </mxCell>
    
    <mxCell
      id="43"
      value=""
      style="shape=partialRectangle;
      html=1;
      whiteSpace=wrap;
      connectable=0;
      fillColor=none;
      top=0;
      left=0;
      bottom=0;
      right=0;
      overflow=hidden;
      pointerEvents=1;
      strokeColor=inherit;
      fontSize=16;"
      parent="42"
      vertex="1">
      <mxGeometry width="40" height="30" as="geometry">
        <mxRectangle width="40" height="30" as="alternateBounds"/>
      </mxGeometry>
    </mxCell>
    
      <mxCell
        id="44"
        value="STRING NOT NULL"
        style="
          shape=partialRectangle;
          html=1;
          whiteSpace=wrap;
          connectable=0;
          fillColor=none;
          top=0;
          left=0;
          bottom=0;
          right=0;
          align=left;
          spacingLeft=6;
          overflow=hidden;
          strokeColor=inherit;
          fontSize=16;"
          parent="42"
          vertex="1">
            <mxGeometry x="40" width="435" height="30" as="geometry">
              <mxRectangle width="435" height="30" as="alternateBounds"/>
            </mxGeometry>
       </mxCell>
    <mxCell
      id="45"
      value=""
        style="
        shape=tableRow;
        horizontal=0;
        startSize=0;
        swimlaneHead=0;
        swimlaneBody=0;
        top=0;
        left=0;
        bottom=0;
        right=0;
        collapsible=0;
        dropTarget=0;
        fillColor=none;
        points=[[0,0.5],[1,0.5]];
        portConstraint=eastwest;
        strokeColor=inherit;
        fontSize=16;"
        parent="35"
        vertex="1">
      <mxGeometry y="130" width="475" height="30" as="geometry"/>
    </mxCell>
    
    <mxCell
      id="46"
      value=""
      style="shape=partialRectangle;
      html=1;
      whiteSpace=wrap;
      connectable=0;
      fillColor=none;
      top=0;
      left=0;
      bottom=0;
      right=0;
      overflow=hidden;
      pointerEvents=1;
      strokeColor=inherit;
      fontSize=16;"
      parent="45"
      vertex="1">
      <mxGeometry width="40" height="30" as="geometry">
        <mxRectangle width="40" height="30" as="alternateBounds"/>
      </mxGeometry>
    </mxCell>
    
      <mxCell
        id="47"
        value="INTEGER NOT NULL"
        style="
          shape=partialRectangle;
          html=1;
          whiteSpace=wrap;
          connectable=0;
          fillColor=none;
          top=0;
          left=0;
          bottom=0;
          right=0;
          align=left;
          spacingLeft=6;
          overflow=hidden;
          strokeColor=inherit;
          fontSize=16;"
          parent="45"
          vertex="1">
            <mxGeometry x="40" width="435" height="30" as="geometry">
              <mxRectangle width="435" height="30" as="alternateBounds"/>
            </mxGeometry>
       </mxCell>
    <mxCell
      id="48"
      value=""
        style="
        shape=tableRow;
        horizontal=0;
        startSize=0;
        swimlaneHead=0;
        swimlaneBody=0;
        top=0;
        left=0;
        bottom=0;
        right=0;
        collapsible=0;
        dropTarget=0;
        fillColor=none;
        points=[[0,0.5],[1,0.5]];
        portConstraint=eastwest;
        strokeColor=inherit;
        fontSize=16;"
        parent="35"
        vertex="1">
      <mxGeometry y="160" width="475" height="30" as="geometry"/>
    </mxCell>
    
    <mxCell
      id="49"
      value=""
      style="shape=partialRectangle;
      html=1;
      whiteSpace=wrap;
      connectable=0;
      fillColor=none;
      top=0;
      left=0;
      bottom=0;
      right=0;
      overflow=hidden;
      pointerEvents=1;
      strokeColor=inherit;
      fontSize=16;"
      parent="48"
      vertex="1">
      <mxGeometry width="40" height="30" as="geometry">
        <mxRectangle width="40" height="30" as="alternateBounds"/>
      </mxGeometry>
    </mxCell>
    
      <mxCell
        id="50"
        value="INTEGER NOT NULL"
        style="
          shape=partialRectangle;
          html=1;
          whiteSpace=wrap;
          connectable=0;
          fillColor=none;
          top=0;
          left=0;
          bottom=0;
          right=0;
          align=left;
          spacingLeft=6;
          overflow=hidden;
          strokeColor=inherit;
          fontSize=16;"
          parent="48"
          vertex="1">
            <mxGeometry x="40" width="435" height="30" as="geometry">
              <mxRectangle width="435" height="30" as="alternateBounds"/>
            </mxGeometry>
       </mxCell>
    <mxCell
      id="51"
      value=""
        style="
        shape=tableRow;
        horizontal=0;
        startSize=0;
        swimlaneHead=0;
        swimlaneBody=0;
        top=0;
        left=0;
        bottom=0;
        right=0;
        collapsible=0;
        dropTarget=0;
        fillColor=none;
        points=[[0,0.5],[1,0.5]];
        portConstraint=eastwest;
        strokeColor=inherit;
        fontSize=16;"
        parent="35"
        vertex="1">
      <mxGeometry y="190" width="475" height="30" as="geometry"/>
    </mxCell>
    
    <mxCell
      id="52"
      value=""
      style="shape=partialRectangle;
      html=1;
      whiteSpace=wrap;
      connectable=0;
      fillColor=none;
      top=0;
      left=0;
      bottom=0;
      right=0;
      overflow=hidden;
      pointerEvents=1;
      strokeColor=inherit;
      fontSize=16;"
      parent="51"
      vertex="1">
      <mxGeometry width="40" height="30" as="geometry">
        <mxRectangle width="40" height="30" as="alternateBounds"/>
      </mxGeometry>
    </mxCell>
    
      <mxCell
        id="53"
        value="STRING NOT NULL"
        style="
          shape=partialRectangle;
          html=1;
          whiteSpace=wrap;
          connectable=0;
          fillColor=none;
          top=0;
          left=0;
          bottom=0;
          right=0;
          align=left;
          spacingLeft=6;
          overflow=hidden;
          strokeColor=inherit;
          fontSize=16;"
          parent="51"
          vertex="1">
            <mxGeometry x="40" width="435" height="30" as="geometry">
              <mxRectangle width="435" height="30" as="alternateBounds"/>
            </mxGeometry>
       </mxCell>
    <mxCell
      id="54"
      value=""
        style="
        shape=tableRow;
        horizontal=0;
        startSize=0;
        swimlaneHead=0;
        swimlaneBody=0;
        top=0;
        left=0;
        bottom=0;
        right=0;
        collapsible=0;
        dropTarget=0;
        fillColor=none;
        points=[[0,0.5],[1,0.5]];
        portConstraint=eastwest;
        strokeColor=inherit;
        fontSize=16;"
        parent="35"
        vertex="1">
      <mxGeometry y="220" width="475" height="30" as="geometry"/>
    </mxCell>
    
    <mxCell
      id="55"
      value=""
      style="shape=partialRectangle;
      html=1;
      whiteSpace=wrap;
      connectable=0;
      fillColor=none;
      top=0;
      left=0;
      bottom=0;
      right=0;
      overflow=hidden;
      pointerEvents=1;
      strokeColor=inherit;
      fontSize=16;"
      parent="54"
      vertex="1">
      <mxGeometry width="40" height="30" as="geometry">
        <mxRectangle width="40" height="30" as="alternateBounds"/>
      </mxGeometry>
    </mxCell>
    
      <mxCell
        id="56"
        value="INTEGER NOT NULL"
        style="
          shape=partialRectangle;
          html=1;
          whiteSpace=wrap;
          connectable=0;
          fillColor=none;
          top=0;
          left=0;
          bottom=0;
          right=0;
          align=left;
          spacingLeft=6;
          overflow=hidden;
          strokeColor=inherit;
          fontSize=16;"
          parent="54"
          vertex="1">
            <mxGeometry x="40" width="435" height="30" as="geometry">
              <mxRectangle width="435" height="30" as="alternateBounds"/>
            </mxGeometry>
       </mxCell>
    <mxCell
      id="57"
      value=""
        style="
        shape=tableRow;
        horizontal=0;
        startSize=0;
        swimlaneHead=0;
        swimlaneBody=0;
        top=0;
        left=0;
        bottom=0;
        right=0;
        collapsible=0;
        dropTarget=0;
        fillColor=none;
        points=[[0,0.5],[1,0.5]];
        portConstraint=eastwest;
        strokeColor=inherit;
        fontSize=16;"
        parent="35"
        vertex="1">
      <mxGeometry y="250" width="475" height="30" as="geometry"/>
    </mxCell>
    
    <mxCell
      id="58"
      value=""
      style="shape=partialRectangle;
      html=1;
      whiteSpace=wrap;
      connectable=0;
      fillColor=none;
      top=0;
      left=0;
      bottom=0;
      right=0;
      overflow=hidden;
      pointerEvents=1;
      strokeColor=inherit;
      fontSize=16;"
      parent="57"
      vertex="1">
      <mxGeometry width="40" height="30" as="geometry">
        <mxRectangle width="40" height="30" as="alternateBounds"/>
      </mxGeometry>
    </mxCell>
    
      <mxCell
        id="59"
        value="STRING NOT NULL"
        style="
          shape=partialRectangle;
          html=1;
          whiteSpace=wrap;
          connectable=0;
          fillColor=none;
          top=0;
          left=0;
          bottom=0;
          right=0;
          align=left;
          spacingLeft=6;
          overflow=hidden;
          strokeColor=inherit;
          fontSize=16;"
          parent="57"
          vertex="1">
            <mxGeometry x="40" width="435" height="30" as="geometry">
              <mxRectangle width="435" height="30" as="alternateBounds"/>
            </mxGeometry>
       </mxCell>
    
    <mxCell
    id="60"
    value="[object Object],[object Object],[object Object],false,Tasks,,,[object Object],,[object Object],[object Set],[object Object],false,[object Object],[object Object],true,false,[object Set],[object Set],[object Object],[object Object],[object Object],[object Object],false,false,true,[object Object],id,id,id,true,(key) => this.primaryKeyAttributes.includes(key),[object Object],id,[object Object],defaultScope"
    style="shape=table;
    startSize=30;
    container=1;
    collapsible=0;
    childLayout=tableLayout;
    fixedRows=1;
    rowLines=0;
    fontStyle=0;
    strokeColor=default;
    fontSize=16;"
    parent="1"
    vertex="1">
      <mxGeometry x="40" y="440" width="750" height="370" as="geometry"/>
    </mxCell>
    
    <mxCell
      id="61"
      value=""
        style="
        shape=tableRow;
        horizontal=0;
        startSize=0;
        swimlaneHead=0;
        swimlaneBody=0;
        top=0;
        left=0;
        bottom=0;
        right=0;
        collapsible=0;
        dropTarget=0;
        fillColor=none;
        points=[[0,0.5],[1,0.5]];
        portConstraint=eastwest;
        strokeColor=inherit;
        fontSize=16;"
        parent="60"
        vertex="1">
      <mxGeometry y="40" width="750" height="30" as="geometry"/>
    </mxCell>
    
    <mxCell
      id="62"
      value="PK"
      style="shape=partialRectangle;
      html=1;
      whiteSpace=wrap;
      connectable=0;
      fillColor=none;
      top=0;
      left=0;
      bottom=0;
      right=0;
      overflow=hidden;
      pointerEvents=1;
      strokeColor=inherit;
      fontSize=16;"
      parent="61"
      vertex="1">
      <mxGeometry width="40" height="30" as="geometry">
        <mxRectangle width="40" height="30" as="alternateBounds"/>
      </mxGeometry>
    </mxCell>
    
      <mxCell
        id="63"
        value="INTEGER  AUTO INCREMENT"
        style="
          shape=partialRectangle;
          html=1;
          whiteSpace=wrap;
          connectable=0;
          fillColor=none;
          top=0;
          left=0;
          bottom=0;
          right=0;
          align=left;
          spacingLeft=6;
          overflow=hidden;
          strokeColor=inherit;
          fontSize=16;"
          parent="61"
          vertex="1">
            <mxGeometry x="40" width="710" height="30" as="geometry">
              <mxRectangle width="710" height="30" as="alternateBounds"/>
            </mxGeometry>
       </mxCell>
    <mxCell
      id="64"
      value=""
        style="
        shape=tableRow;
        horizontal=0;
        startSize=0;
        swimlaneHead=0;
        swimlaneBody=0;
        top=0;
        left=0;
        bottom=0;
        right=0;
        collapsible=0;
        dropTarget=0;
        fillColor=none;
        points=[[0,0.5],[1,0.5]];
        portConstraint=eastwest;
        strokeColor=inherit;
        fontSize=16;"
        parent="60"
        vertex="1">
      <mxGeometry y="70" width="750" height="30" as="geometry"/>
    </mxCell>
    
    <mxCell
      id="65"
      value=""
      style="shape=partialRectangle;
      html=1;
      whiteSpace=wrap;
      connectable=0;
      fillColor=none;
      top=0;
      left=0;
      bottom=0;
      right=0;
      overflow=hidden;
      pointerEvents=1;
      strokeColor=inherit;
      fontSize=16;"
      parent="64"
      vertex="1">
      <mxGeometry width="40" height="30" as="geometry">
        <mxRectangle width="40" height="30" as="alternateBounds"/>
      </mxGeometry>
    </mxCell>
    
      <mxCell
        id="66"
        value="INTEGER "
        style="
          shape=partialRectangle;
          html=1;
          whiteSpace=wrap;
          connectable=0;
          fillColor=none;
          top=0;
          left=0;
          bottom=0;
          right=0;
          align=left;
          spacingLeft=6;
          overflow=hidden;
          strokeColor=inherit;
          fontSize=16;"
          parent="64"
          vertex="1">
            <mxGeometry x="40" width="710" height="30" as="geometry">
              <mxRectangle width="710" height="30" as="alternateBounds"/>
            </mxGeometry>
       </mxCell>
    <mxCell
      id="67"
      value=""
        style="
        shape=tableRow;
        horizontal=0;
        startSize=0;
        swimlaneHead=0;
        swimlaneBody=0;
        top=0;
        left=0;
        bottom=0;
        right=0;
        collapsible=0;
        dropTarget=0;
        fillColor=none;
        points=[[0,0.5],[1,0.5]];
        portConstraint=eastwest;
        strokeColor=inherit;
        fontSize=16;"
        parent="60"
        vertex="1">
      <mxGeometry y="100" width="750" height="30" as="geometry"/>
    </mxCell>
    
    <mxCell
      id="68"
      value=""
      style="shape=partialRectangle;
      html=1;
      whiteSpace=wrap;
      connectable=0;
      fillColor=none;
      top=0;
      left=0;
      bottom=0;
      right=0;
      overflow=hidden;
      pointerEvents=1;
      strokeColor=inherit;
      fontSize=16;"
      parent="67"
      vertex="1">
      <mxGeometry width="40" height="30" as="geometry">
        <mxRectangle width="40" height="30" as="alternateBounds"/>
      </mxGeometry>
    </mxCell>
    
      <mxCell
        id="69"
        value="INTEGER NOT NULL"
        style="
          shape=partialRectangle;
          html=1;
          whiteSpace=wrap;
          connectable=0;
          fillColor=none;
          top=0;
          left=0;
          bottom=0;
          right=0;
          align=left;
          spacingLeft=6;
          overflow=hidden;
          strokeColor=inherit;
          fontSize=16;"
          parent="67"
          vertex="1">
            <mxGeometry x="40" width="710" height="30" as="geometry">
              <mxRectangle width="710" height="30" as="alternateBounds"/>
            </mxGeometry>
       </mxCell>
    <mxCell
      id="70"
      value=""
        style="
        shape=tableRow;
        horizontal=0;
        startSize=0;
        swimlaneHead=0;
        swimlaneBody=0;
        top=0;
        left=0;
        bottom=0;
        right=0;
        collapsible=0;
        dropTarget=0;
        fillColor=none;
        points=[[0,0.5],[1,0.5]];
        portConstraint=eastwest;
        strokeColor=inherit;
        fontSize=16;"
        parent="60"
        vertex="1">
      <mxGeometry y="130" width="750" height="30" as="geometry"/>
    </mxCell>
    
    <mxCell
      id="71"
      value=""
      style="shape=partialRectangle;
      html=1;
      whiteSpace=wrap;
      connectable=0;
      fillColor=none;
      top=0;
      left=0;
      bottom=0;
      right=0;
      overflow=hidden;
      pointerEvents=1;
      strokeColor=inherit;
      fontSize=16;"
      parent="70"
      vertex="1">
      <mxGeometry width="40" height="30" as="geometry">
        <mxRectangle width="40" height="30" as="alternateBounds"/>
      </mxGeometry>
    </mxCell>
    
      <mxCell
        id="72"
        value="INTEGER NOT NULL"
        style="
          shape=partialRectangle;
          html=1;
          whiteSpace=wrap;
          connectable=0;
          fillColor=none;
          top=0;
          left=0;
          bottom=0;
          right=0;
          align=left;
          spacingLeft=6;
          overflow=hidden;
          strokeColor=inherit;
          fontSize=16;"
          parent="70"
          vertex="1">
            <mxGeometry x="40" width="710" height="30" as="geometry">
              <mxRectangle width="710" height="30" as="alternateBounds"/>
            </mxGeometry>
       </mxCell>
    <mxCell
      id="73"
      value=""
        style="
        shape=tableRow;
        horizontal=0;
        startSize=0;
        swimlaneHead=0;
        swimlaneBody=0;
        top=0;
        left=0;
        bottom=0;
        right=0;
        collapsible=0;
        dropTarget=0;
        fillColor=none;
        points=[[0,0.5],[1,0.5]];
        portConstraint=eastwest;
        strokeColor=inherit;
        fontSize=16;"
        parent="60"
        vertex="1">
      <mxGeometry y="160" width="750" height="30" as="geometry"/>
    </mxCell>
    
    <mxCell
      id="74"
      value=""
      style="shape=partialRectangle;
      html=1;
      whiteSpace=wrap;
      connectable=0;
      fillColor=none;
      top=0;
      left=0;
      bottom=0;
      right=0;
      overflow=hidden;
      pointerEvents=1;
      strokeColor=inherit;
      fontSize=16;"
      parent="73"
      vertex="1">
      <mxGeometry width="40" height="30" as="geometry">
        <mxRectangle width="40" height="30" as="alternateBounds"/>
      </mxGeometry>
    </mxCell>
    
      <mxCell
        id="75"
        value="INTEGER NOT NULL"
        style="
          shape=partialRectangle;
          html=1;
          whiteSpace=wrap;
          connectable=0;
          fillColor=none;
          top=0;
          left=0;
          bottom=0;
          right=0;
          align=left;
          spacingLeft=6;
          overflow=hidden;
          strokeColor=inherit;
          fontSize=16;"
          parent="73"
          vertex="1">
            <mxGeometry x="40" width="710" height="30" as="geometry">
              <mxRectangle width="710" height="30" as="alternateBounds"/>
            </mxGeometry>
       </mxCell>
    <mxCell
      id="76"
      value=""
        style="
        shape=tableRow;
        horizontal=0;
        startSize=0;
        swimlaneHead=0;
        swimlaneBody=0;
        top=0;
        left=0;
        bottom=0;
        right=0;
        collapsible=0;
        dropTarget=0;
        fillColor=none;
        points=[[0,0.5],[1,0.5]];
        portConstraint=eastwest;
        strokeColor=inherit;
        fontSize=16;"
        parent="60"
        vertex="1">
      <mxGeometry y="190" width="750" height="30" as="geometry"/>
    </mxCell>
    
    <mxCell
      id="77"
      value=""
      style="shape=partialRectangle;
      html=1;
      whiteSpace=wrap;
      connectable=0;
      fillColor=none;
      top=0;
      left=0;
      bottom=0;
      right=0;
      overflow=hidden;
      pointerEvents=1;
      strokeColor=inherit;
      fontSize=16;"
      parent="76"
      vertex="1">
      <mxGeometry width="40" height="30" as="geometry">
        <mxRectangle width="40" height="30" as="alternateBounds"/>
      </mxGeometry>
    </mxCell>
    
      <mxCell
        id="78"
        value="STRING NOT NULL DEFAULT pending"
        style="
          shape=partialRectangle;
          html=1;
          whiteSpace=wrap;
          connectable=0;
          fillColor=none;
          top=0;
          left=0;
          bottom=0;
          right=0;
          align=left;
          spacingLeft=6;
          overflow=hidden;
          strokeColor=inherit;
          fontSize=16;"
          parent="76"
          vertex="1">
            <mxGeometry x="40" width="710" height="30" as="geometry">
              <mxRectangle width="710" height="30" as="alternateBounds"/>
            </mxGeometry>
       </mxCell>
    <mxCell
      id="79"
      value=""
        style="
        shape=tableRow;
        horizontal=0;
        startSize=0;
        swimlaneHead=0;
        swimlaneBody=0;
        top=0;
        left=0;
        bottom=0;
        right=0;
        collapsible=0;
        dropTarget=0;
        fillColor=none;
        points=[[0,0.5],[1,0.5]];
        portConstraint=eastwest;
        strokeColor=inherit;
        fontSize=16;"
        parent="60"
        vertex="1">
      <mxGeometry y="220" width="750" height="30" as="geometry"/>
    </mxCell>
    
    <mxCell
      id="80"
      value=""
      style="shape=partialRectangle;
      html=1;
      whiteSpace=wrap;
      connectable=0;
      fillColor=none;
      top=0;
      left=0;
      bottom=0;
      right=0;
      overflow=hidden;
      pointerEvents=1;
      strokeColor=inherit;
      fontSize=16;"
      parent="79"
      vertex="1">
      <mxGeometry width="40" height="30" as="geometry">
        <mxRectangle width="40" height="30" as="alternateBounds"/>
      </mxGeometry>
    </mxCell>
    
      <mxCell
        id="81"
        value="STRING "
        style="
          shape=partialRectangle;
          html=1;
          whiteSpace=wrap;
          connectable=0;
          fillColor=none;
          top=0;
          left=0;
          bottom=0;
          right=0;
          align=left;
          spacingLeft=6;
          overflow=hidden;
          strokeColor=inherit;
          fontSize=16;"
          parent="79"
          vertex="1">
            <mxGeometry x="40" width="710" height="30" as="geometry">
              <mxRectangle width="710" height="30" as="alternateBounds"/>
            </mxGeometry>
       </mxCell>
    <mxCell
      id="82"
      value=""
        style="
        shape=tableRow;
        horizontal=0;
        startSize=0;
        swimlaneHead=0;
        swimlaneBody=0;
        top=0;
        left=0;
        bottom=0;
        right=0;
        collapsible=0;
        dropTarget=0;
        fillColor=none;
        points=[[0,0.5],[1,0.5]];
        portConstraint=eastwest;
        strokeColor=inherit;
        fontSize=16;"
        parent="60"
        vertex="1">
      <mxGeometry y="250" width="750" height="30" as="geometry"/>
    </mxCell>
    
    <mxCell
      id="83"
      value=""
      style="shape=partialRectangle;
      html=1;
      whiteSpace=wrap;
      connectable=0;
      fillColor=none;
      top=0;
      left=0;
      bottom=0;
      right=0;
      overflow=hidden;
      pointerEvents=1;
      strokeColor=inherit;
      fontSize=16;"
      parent="82"
      vertex="1">
      <mxGeometry width="40" height="30" as="geometry">
        <mxRectangle width="40" height="30" as="alternateBounds"/>
      </mxGeometry>
    </mxCell>
    
      <mxCell
        id="84"
        value="INTEGER "
        style="
          shape=partialRectangle;
          html=1;
          whiteSpace=wrap;
          connectable=0;
          fillColor=none;
          top=0;
          left=0;
          bottom=0;
          right=0;
          align=left;
          spacingLeft=6;
          overflow=hidden;
          strokeColor=inherit;
          fontSize=16;"
          parent="82"
          vertex="1">
            <mxGeometry x="40" width="710" height="30" as="geometry">
              <mxRectangle width="710" height="30" as="alternateBounds"/>
            </mxGeometry>
       </mxCell>
    <mxCell
      id="85"
      value=""
        style="
        shape=tableRow;
        horizontal=0;
        startSize=0;
        swimlaneHead=0;
        swimlaneBody=0;
        top=0;
        left=0;
        bottom=0;
        right=0;
        collapsible=0;
        dropTarget=0;
        fillColor=none;
        points=[[0,0.5],[1,0.5]];
        portConstraint=eastwest;
        strokeColor=inherit;
        fontSize=16;"
        parent="60"
        vertex="1">
      <mxGeometry y="280" width="750" height="30" as="geometry"/>
    </mxCell>
    
    <mxCell
      id="86"
      value=""
      style="shape=partialRectangle;
      html=1;
      whiteSpace=wrap;
      connectable=0;
      fillColor=none;
      top=0;
      left=0;
      bottom=0;
      right=0;
      overflow=hidden;
      pointerEvents=1;
      strokeColor=inherit;
      fontSize=16;"
      parent="85"
      vertex="1">
      <mxGeometry width="40" height="30" as="geometry">
        <mxRectangle width="40" height="30" as="alternateBounds"/>
      </mxGeometry>
    </mxCell>
    
      <mxCell
        id="87"
        value="INTEGER "
        style="
          shape=partialRectangle;
          html=1;
          whiteSpace=wrap;
          connectable=0;
          fillColor=none;
          top=0;
          left=0;
          bottom=0;
          right=0;
          align=left;
          spacingLeft=6;
          overflow=hidden;
          strokeColor=inherit;
          fontSize=16;"
          parent="85"
          vertex="1">
            <mxGeometry x="40" width="710" height="30" as="geometry">
              <mxRectangle width="710" height="30" as="alternateBounds"/>
            </mxGeometry>
       </mxCell>
    <mxCell
      id="88"
      value=""
        style="
        shape=tableRow;
        horizontal=0;
        startSize=0;
        swimlaneHead=0;
        swimlaneBody=0;
        top=0;
        left=0;
        bottom=0;
        right=0;
        collapsible=0;
        dropTarget=0;
        fillColor=none;
        points=[[0,0.5],[1,0.5]];
        portConstraint=eastwest;
        strokeColor=inherit;
        fontSize=16;"
        parent="60"
        vertex="1">
      <mxGeometry y="310" width="750" height="30" as="geometry"/>
    </mxCell>
    
    <mxCell
      id="89"
      value=""
      style="shape=partialRectangle;
      html=1;
      whiteSpace=wrap;
      connectable=0;
      fillColor=none;
      top=0;
      left=0;
      bottom=0;
      right=0;
      overflow=hidden;
      pointerEvents=1;
      strokeColor=inherit;
      fontSize=16;"
      parent="88"
      vertex="1">
      <mxGeometry width="40" height="30" as="geometry">
        <mxRectangle width="40" height="30" as="alternateBounds"/>
      </mxGeometry>
    </mxCell>
    
      <mxCell
        id="90"
        value="BOOLEAN NOT NULL"
        style="
          shape=partialRectangle;
          html=1;
          whiteSpace=wrap;
          connectable=0;
          fillColor=none;
          top=0;
          left=0;
          bottom=0;
          right=0;
          align=left;
          spacingLeft=6;
          overflow=hidden;
          strokeColor=inherit;
          fontSize=16;"
          parent="88"
          vertex="1">
            <mxGeometry x="40" width="710" height="30" as="geometry">
              <mxRectangle width="710" height="30" as="alternateBounds"/>
            </mxGeometry>
       </mxCell>
    <mxCell
      id="91"
      value=""
        style="
        shape=tableRow;
        horizontal=0;
        startSize=0;
        swimlaneHead=0;
        swimlaneBody=0;
        top=0;
        left=0;
        bottom=0;
        right=0;
        collapsible=0;
        dropTarget=0;
        fillColor=none;
        points=[[0,0.5],[1,0.5]];
        portConstraint=eastwest;
        strokeColor=inherit;
        fontSize=16;"
        parent="60"
        vertex="1">
      <mxGeometry y="340" width="750" height="30" as="geometry"/>
    </mxCell>
    
    <mxCell
      id="92"
      value=""
      style="shape=partialRectangle;
      html=1;
      whiteSpace=wrap;
      connectable=0;
      fillColor=none;
      top=0;
      left=0;
      bottom=0;
      right=0;
      overflow=hidden;
      pointerEvents=1;
      strokeColor=inherit;
      fontSize=16;"
      parent="91"
      vertex="1">
      <mxGeometry width="40" height="30" as="geometry">
        <mxRectangle width="40" height="30" as="alternateBounds"/>
      </mxGeometry>
    </mxCell>
    
      <mxCell
        id="93"
        value="INTEGER "
        style="
          shape=partialRectangle;
          html=1;
          whiteSpace=wrap;
          connectable=0;
          fillColor=none;
          top=0;
          left=0;
          bottom=0;
          right=0;
          align=left;
          spacingLeft=6;
          overflow=hidden;
          strokeColor=inherit;
          fontSize=16;"
          parent="91"
          vertex="1">
            <mxGeometry x="40" width="710" height="30" as="geometry">
              <mxRectangle width="710" height="30" as="alternateBounds"/>
            </mxGeometry>
       </mxCell>
    
    <mxCell
    id="94"
    value="[object Object],[object Object],[object Object],false,Tickets,,,[object Object],,[object Object],[object Set],[object Object],false,[object Object],[object Object],true,true,[object Set],[object Set],[object Object],[object Object],[object Object],[object Object],false,false,true,[object Object],id,id,id,true,(key) => this.primaryKeyAttributes.includes(key),[object Object],id,[object Object],defaultScope"
    style="shape=table;
    startSize=30;
    container=1;
    collapsible=0;
    childLayout=tableLayout;
    fixedRows=1;
    rowLines=0;
    fontStyle=0;
    strokeColor=default;
    fontSize=16;"
    parent="1"
    vertex="1">
      <mxGeometry x="40" y="540" width="400" height="250" as="geometry"/>
    </mxCell>
    
    <mxCell
      id="95"
      value=""
        style="
        shape=tableRow;
        horizontal=0;
        startSize=0;
        swimlaneHead=0;
        swimlaneBody=0;
        top=0;
        left=0;
        bottom=0;
        right=0;
        collapsible=0;
        dropTarget=0;
        fillColor=none;
        points=[[0,0.5],[1,0.5]];
        portConstraint=eastwest;
        strokeColor=inherit;
        fontSize=16;"
        parent="94"
        vertex="1">
      <mxGeometry y="40" width="400" height="30" as="geometry"/>
    </mxCell>
    
    <mxCell
      id="96"
      value="PK"
      style="shape=partialRectangle;
      html=1;
      whiteSpace=wrap;
      connectable=0;
      fillColor=none;
      top=0;
      left=0;
      bottom=0;
      right=0;
      overflow=hidden;
      pointerEvents=1;
      strokeColor=inherit;
      fontSize=16;"
      parent="95"
      vertex="1">
      <mxGeometry width="40" height="30" as="geometry">
        <mxRectangle width="40" height="30" as="alternateBounds"/>
      </mxGeometry>
    </mxCell>
    
      <mxCell
        id="97"
        value="INTEGER  AUTO INCREMENT"
        style="
          shape=partialRectangle;
          html=1;
          whiteSpace=wrap;
          connectable=0;
          fillColor=none;
          top=0;
          left=0;
          bottom=0;
          right=0;
          align=left;
          spacingLeft=6;
          overflow=hidden;
          strokeColor=inherit;
          fontSize=16;"
          parent="95"
          vertex="1">
            <mxGeometry x="40" width="360" height="30" as="geometry">
              <mxRectangle width="360" height="30" as="alternateBounds"/>
            </mxGeometry>
       </mxCell>
    <mxCell
      id="98"
      value=""
        style="
        shape=tableRow;
        horizontal=0;
        startSize=0;
        swimlaneHead=0;
        swimlaneBody=0;
        top=0;
        left=0;
        bottom=0;
        right=0;
        collapsible=0;
        dropTarget=0;
        fillColor=none;
        points=[[0,0.5],[1,0.5]];
        portConstraint=eastwest;
        strokeColor=inherit;
        fontSize=16;"
        parent="94"
        vertex="1">
      <mxGeometry y="70" width="400" height="30" as="geometry"/>
    </mxCell>
    
    <mxCell
      id="99"
      value=""
      style="shape=partialRectangle;
      html=1;
      whiteSpace=wrap;
      connectable=0;
      fillColor=none;
      top=0;
      left=0;
      bottom=0;
      right=0;
      overflow=hidden;
      pointerEvents=1;
      strokeColor=inherit;
      fontSize=16;"
      parent="98"
      vertex="1">
      <mxGeometry width="40" height="30" as="geometry">
        <mxRectangle width="40" height="30" as="alternateBounds"/>
      </mxGeometry>
    </mxCell>
    
      <mxCell
        id="100"
        value="INTEGER NOT NULL"
        style="
          shape=partialRectangle;
          html=1;
          whiteSpace=wrap;
          connectable=0;
          fillColor=none;
          top=0;
          left=0;
          bottom=0;
          right=0;
          align=left;
          spacingLeft=6;
          overflow=hidden;
          strokeColor=inherit;
          fontSize=16;"
          parent="98"
          vertex="1">
            <mxGeometry x="40" width="360" height="30" as="geometry">
              <mxRectangle width="360" height="30" as="alternateBounds"/>
            </mxGeometry>
       </mxCell>
    <mxCell
      id="101"
      value=""
        style="
        shape=tableRow;
        horizontal=0;
        startSize=0;
        swimlaneHead=0;
        swimlaneBody=0;
        top=0;
        left=0;
        bottom=0;
        right=0;
        collapsible=0;
        dropTarget=0;
        fillColor=none;
        points=[[0,0.5],[1,0.5]];
        portConstraint=eastwest;
        strokeColor=inherit;
        fontSize=16;"
        parent="94"
        vertex="1">
      <mxGeometry y="100" width="400" height="30" as="geometry"/>
    </mxCell>
    
    <mxCell
      id="102"
      value=""
      style="shape=partialRectangle;
      html=1;
      whiteSpace=wrap;
      connectable=0;
      fillColor=none;
      top=0;
      left=0;
      bottom=0;
      right=0;
      overflow=hidden;
      pointerEvents=1;
      strokeColor=inherit;
      fontSize=16;"
      parent="101"
      vertex="1">
      <mxGeometry width="40" height="30" as="geometry">
        <mxRectangle width="40" height="30" as="alternateBounds"/>
      </mxGeometry>
    </mxCell>
    
      <mxCell
        id="103"
        value="STRING NOT NULL"
        style="
          shape=partialRectangle;
          html=1;
          whiteSpace=wrap;
          connectable=0;
          fillColor=none;
          top=0;
          left=0;
          bottom=0;
          right=0;
          align=left;
          spacingLeft=6;
          overflow=hidden;
          strokeColor=inherit;
          fontSize=16;"
          parent="101"
          vertex="1">
            <mxGeometry x="40" width="360" height="30" as="geometry">
              <mxRectangle width="360" height="30" as="alternateBounds"/>
            </mxGeometry>
       </mxCell>
    <mxCell
      id="104"
      value=""
        style="
        shape=tableRow;
        horizontal=0;
        startSize=0;
        swimlaneHead=0;
        swimlaneBody=0;
        top=0;
        left=0;
        bottom=0;
        right=0;
        collapsible=0;
        dropTarget=0;
        fillColor=none;
        points=[[0,0.5],[1,0.5]];
        portConstraint=eastwest;
        strokeColor=inherit;
        fontSize=16;"
        parent="94"
        vertex="1">
      <mxGeometry y="130" width="400" height="30" as="geometry"/>
    </mxCell>
    
    <mxCell
      id="105"
      value=""
      style="shape=partialRectangle;
      html=1;
      whiteSpace=wrap;
      connectable=0;
      fillColor=none;
      top=0;
      left=0;
      bottom=0;
      right=0;
      overflow=hidden;
      pointerEvents=1;
      strokeColor=inherit;
      fontSize=16;"
      parent="104"
      vertex="1">
      <mxGeometry width="40" height="30" as="geometry">
        <mxRectangle width="40" height="30" as="alternateBounds"/>
      </mxGeometry>
    </mxCell>
    
      <mxCell
        id="106"
        value="INTEGER NOT NULL"
        style="
          shape=partialRectangle;
          html=1;
          whiteSpace=wrap;
          connectable=0;
          fillColor=none;
          top=0;
          left=0;
          bottom=0;
          right=0;
          align=left;
          spacingLeft=6;
          overflow=hidden;
          strokeColor=inherit;
          fontSize=16;"
          parent="104"
          vertex="1">
            <mxGeometry x="40" width="360" height="30" as="geometry">
              <mxRectangle width="360" height="30" as="alternateBounds"/>
            </mxGeometry>
       </mxCell>
    <mxCell
      id="107"
      value=""
        style="
        shape=tableRow;
        horizontal=0;
        startSize=0;
        swimlaneHead=0;
        swimlaneBody=0;
        top=0;
        left=0;
        bottom=0;
        right=0;
        collapsible=0;
        dropTarget=0;
        fillColor=none;
        points=[[0,0.5],[1,0.5]];
        portConstraint=eastwest;
        strokeColor=inherit;
        fontSize=16;"
        parent="94"
        vertex="1">
      <mxGeometry y="160" width="400" height="30" as="geometry"/>
    </mxCell>
    
    <mxCell
      id="108"
      value=""
      style="shape=partialRectangle;
      html=1;
      whiteSpace=wrap;
      connectable=0;
      fillColor=none;
      top=0;
      left=0;
      bottom=0;
      right=0;
      overflow=hidden;
      pointerEvents=1;
      strokeColor=inherit;
      fontSize=16;"
      parent="107"
      vertex="1">
      <mxGeometry width="40" height="30" as="geometry">
        <mxRectangle width="40" height="30" as="alternateBounds"/>
      </mxGeometry>
    </mxCell>
    
      <mxCell
        id="109"
        value="DATE "
        style="
          shape=partialRectangle;
          html=1;
          whiteSpace=wrap;
          connectable=0;
          fillColor=none;
          top=0;
          left=0;
          bottom=0;
          right=0;
          align=left;
          spacingLeft=6;
          overflow=hidden;
          strokeColor=inherit;
          fontSize=16;"
          parent="107"
          vertex="1">
            <mxGeometry x="40" width="360" height="30" as="geometry">
              <mxRectangle width="360" height="30" as="alternateBounds"/>
            </mxGeometry>
       </mxCell>
    <mxCell
      id="110"
      value=""
        style="
        shape=tableRow;
        horizontal=0;
        startSize=0;
        swimlaneHead=0;
        swimlaneBody=0;
        top=0;
        left=0;
        bottom=0;
        right=0;
        collapsible=0;
        dropTarget=0;
        fillColor=none;
        points=[[0,0.5],[1,0.5]];
        portConstraint=eastwest;
        strokeColor=inherit;
        fontSize=16;"
        parent="94"
        vertex="1">
      <mxGeometry y="190" width="400" height="30" as="geometry"/>
    </mxCell>
    
    <mxCell
      id="111"
      value=""
      style="shape=partialRectangle;
      html=1;
      whiteSpace=wrap;
      connectable=0;
      fillColor=none;
      top=0;
      left=0;
      bottom=0;
      right=0;
      overflow=hidden;
      pointerEvents=1;
      strokeColor=inherit;
      fontSize=16;"
      parent="110"
      vertex="1">
      <mxGeometry width="40" height="30" as="geometry">
        <mxRectangle width="40" height="30" as="alternateBounds"/>
      </mxGeometry>
    </mxCell>
    
      <mxCell
        id="112"
        value="STRING "
        style="
          shape=partialRectangle;
          html=1;
          whiteSpace=wrap;
          connectable=0;
          fillColor=none;
          top=0;
          left=0;
          bottom=0;
          right=0;
          align=left;
          spacingLeft=6;
          overflow=hidden;
          strokeColor=inherit;
          fontSize=16;"
          parent="110"
          vertex="1">
            <mxGeometry x="40" width="360" height="30" as="geometry">
              <mxRectangle width="360" height="30" as="alternateBounds"/>
            </mxGeometry>
       </mxCell>
    <mxCell
      id="113"
      value=""
        style="
        shape=tableRow;
        horizontal=0;
        startSize=0;
        swimlaneHead=0;
        swimlaneBody=0;
        top=0;
        left=0;
        bottom=0;
        right=0;
        collapsible=0;
        dropTarget=0;
        fillColor=none;
        points=[[0,0.5],[1,0.5]];
        portConstraint=eastwest;
        strokeColor=inherit;
        fontSize=16;"
        parent="94"
        vertex="1">
      <mxGeometry y="220" width="400" height="30" as="geometry"/>
    </mxCell>
    
    <mxCell
      id="114"
      value=""
      style="shape=partialRectangle;
      html=1;
      whiteSpace=wrap;
      connectable=0;
      fillColor=none;
      top=0;
      left=0;
      bottom=0;
      right=0;
      overflow=hidden;
      pointerEvents=1;
      strokeColor=inherit;
      fontSize=16;"
      parent="113"
      vertex="1">
      <mxGeometry width="40" height="30" as="geometry">
        <mxRectangle width="40" height="30" as="alternateBounds"/>
      </mxGeometry>
    </mxCell>
    
      <mxCell
        id="115"
        value="BOOLEAN "
        style="
          shape=partialRectangle;
          html=1;
          whiteSpace=wrap;
          connectable=0;
          fillColor=none;
          top=0;
          left=0;
          bottom=0;
          right=0;
          align=left;
          spacingLeft=6;
          overflow=hidden;
          strokeColor=inherit;
          fontSize=16;"
          parent="113"
          vertex="1">
            <mxGeometry x="40" width="360" height="30" as="geometry">
              <mxRectangle width="360" height="30" as="alternateBounds"/>
            </mxGeometry>
       </mxCell>
    
    <mxCell
    id="116"
    value="[object Object],[object Object],[object Object],false,Users,,,[object Object],,[object Object],[object Set],[object Object],false,[object Object],[object Object],true,false,[object Set],[object Set],[object Object],[object Object],[object Object],[object Object],false,false,true,[object Object],id,id,id,true,(key) => this.primaryKeyAttributes.includes(key),[object Object],id,[object Object],defaultScope"
    style="shape=table;
    startSize=30;
    container=1;
    collapsible=0;
    childLayout=tableLayout;
    fixedRows=1;
    rowLines=0;
    fontStyle=0;
    strokeColor=default;
    fontSize=16;"
    parent="1"
    vertex="1">
      <mxGeometry x="40" y="640" width="425" height="250" as="geometry"/>
    </mxCell>
    
    <mxCell
      id="117"
      value=""
        style="
        shape=tableRow;
        horizontal=0;
        startSize=0;
        swimlaneHead=0;
        swimlaneBody=0;
        top=0;
        left=0;
        bottom=0;
        right=0;
        collapsible=0;
        dropTarget=0;
        fillColor=none;
        points=[[0,0.5],[1,0.5]];
        portConstraint=eastwest;
        strokeColor=inherit;
        fontSize=16;"
        parent="116"
        vertex="1">
      <mxGeometry y="40" width="425" height="30" as="geometry"/>
    </mxCell>
    
    <mxCell
      id="118"
      value="PK"
      style="shape=partialRectangle;
      html=1;
      whiteSpace=wrap;
      connectable=0;
      fillColor=none;
      top=0;
      left=0;
      bottom=0;
      right=0;
      overflow=hidden;
      pointerEvents=1;
      strokeColor=inherit;
      fontSize=16;"
      parent="117"
      vertex="1">
      <mxGeometry width="40" height="30" as="geometry">
        <mxRectangle width="40" height="30" as="alternateBounds"/>
      </mxGeometry>
    </mxCell>
    
      <mxCell
        id="119"
        value="INTEGER  AUTO INCREMENT"
        style="
          shape=partialRectangle;
          html=1;
          whiteSpace=wrap;
          connectable=0;
          fillColor=none;
          top=0;
          left=0;
          bottom=0;
          right=0;
          align=left;
          spacingLeft=6;
          overflow=hidden;
          strokeColor=inherit;
          fontSize=16;"
          parent="117"
          vertex="1">
            <mxGeometry x="40" width="385" height="30" as="geometry">
              <mxRectangle width="385" height="30" as="alternateBounds"/>
            </mxGeometry>
       </mxCell>
    <mxCell
      id="120"
      value=""
        style="
        shape=tableRow;
        horizontal=0;
        startSize=0;
        swimlaneHead=0;
        swimlaneBody=0;
        top=0;
        left=0;
        bottom=0;
        right=0;
        collapsible=0;
        dropTarget=0;
        fillColor=none;
        points=[[0,0.5],[1,0.5]];
        portConstraint=eastwest;
        strokeColor=inherit;
        fontSize=16;"
        parent="116"
        vertex="1">
      <mxGeometry y="70" width="425" height="30" as="geometry"/>
    </mxCell>
    
    <mxCell
      id="121"
      value=""
      style="shape=partialRectangle;
      html=1;
      whiteSpace=wrap;
      connectable=0;
      fillColor=none;
      top=0;
      left=0;
      bottom=0;
      right=0;
      overflow=hidden;
      pointerEvents=1;
      strokeColor=inherit;
      fontSize=16;"
      parent="120"
      vertex="1">
      <mxGeometry width="40" height="30" as="geometry">
        <mxRectangle width="40" height="30" as="alternateBounds"/>
      </mxGeometry>
    </mxCell>
    
      <mxCell
        id="122"
        value="STRING NOT NULL"
        style="
          shape=partialRectangle;
          html=1;
          whiteSpace=wrap;
          connectable=0;
          fillColor=none;
          top=0;
          left=0;
          bottom=0;
          right=0;
          align=left;
          spacingLeft=6;
          overflow=hidden;
          strokeColor=inherit;
          fontSize=16;"
          parent="120"
          vertex="1">
            <mxGeometry x="40" width="385" height="30" as="geometry">
              <mxRectangle width="385" height="30" as="alternateBounds"/>
            </mxGeometry>
       </mxCell>
    <mxCell
      id="123"
      value=""
        style="
        shape=tableRow;
        horizontal=0;
        startSize=0;
        swimlaneHead=0;
        swimlaneBody=0;
        top=0;
        left=0;
        bottom=0;
        right=0;
        collapsible=0;
        dropTarget=0;
        fillColor=none;
        points=[[0,0.5],[1,0.5]];
        portConstraint=eastwest;
        strokeColor=inherit;
        fontSize=16;"
        parent="116"
        vertex="1">
      <mxGeometry y="100" width="425" height="30" as="geometry"/>
    </mxCell>
    
    <mxCell
      id="124"
      value=""
      style="shape=partialRectangle;
      html=1;
      whiteSpace=wrap;
      connectable=0;
      fillColor=none;
      top=0;
      left=0;
      bottom=0;
      right=0;
      overflow=hidden;
      pointerEvents=1;
      strokeColor=inherit;
      fontSize=16;"
      parent="123"
      vertex="1">
      <mxGeometry width="40" height="30" as="geometry">
        <mxRectangle width="40" height="30" as="alternateBounds"/>
      </mxGeometry>
    </mxCell>
    
      <mxCell
        id="125"
        value="STRING NOT NULL"
        style="
          shape=partialRectangle;
          html=1;
          whiteSpace=wrap;
          connectable=0;
          fillColor=none;
          top=0;
          left=0;
          bottom=0;
          right=0;
          align=left;
          spacingLeft=6;
          overflow=hidden;
          strokeColor=inherit;
          fontSize=16;"
          parent="123"
          vertex="1">
            <mxGeometry x="40" width="385" height="30" as="geometry">
              <mxRectangle width="385" height="30" as="alternateBounds"/>
            </mxGeometry>
       </mxCell>
    <mxCell
      id="126"
      value=""
        style="
        shape=tableRow;
        horizontal=0;
        startSize=0;
        swimlaneHead=0;
        swimlaneBody=0;
        top=0;
        left=0;
        bottom=0;
        right=0;
        collapsible=0;
        dropTarget=0;
        fillColor=none;
        points=[[0,0.5],[1,0.5]];
        portConstraint=eastwest;
        strokeColor=inherit;
        fontSize=16;"
        parent="116"
        vertex="1">
      <mxGeometry y="130" width="425" height="30" as="geometry"/>
    </mxCell>
    
    <mxCell
      id="127"
      value=""
      style="shape=partialRectangle;
      html=1;
      whiteSpace=wrap;
      connectable=0;
      fillColor=none;
      top=0;
      left=0;
      bottom=0;
      right=0;
      overflow=hidden;
      pointerEvents=1;
      strokeColor=inherit;
      fontSize=16;"
      parent="126"
      vertex="1">
      <mxGeometry width="40" height="30" as="geometry">
        <mxRectangle width="40" height="30" as="alternateBounds"/>
      </mxGeometry>
    </mxCell>
    
      <mxCell
        id="128"
        value="STRING NOT NULL"
        style="
          shape=partialRectangle;
          html=1;
          whiteSpace=wrap;
          connectable=0;
          fillColor=none;
          top=0;
          left=0;
          bottom=0;
          right=0;
          align=left;
          spacingLeft=6;
          overflow=hidden;
          strokeColor=inherit;
          fontSize=16;"
          parent="126"
          vertex="1">
            <mxGeometry x="40" width="385" height="30" as="geometry">
              <mxRectangle width="385" height="30" as="alternateBounds"/>
            </mxGeometry>
       </mxCell>
    <mxCell
      id="129"
      value=""
        style="
        shape=tableRow;
        horizontal=0;
        startSize=0;
        swimlaneHead=0;
        swimlaneBody=0;
        top=0;
        left=0;
        bottom=0;
        right=0;
        collapsible=0;
        dropTarget=0;
        fillColor=none;
        points=[[0,0.5],[1,0.5]];
        portConstraint=eastwest;
        strokeColor=inherit;
        fontSize=16;"
        parent="116"
        vertex="1">
      <mxGeometry y="160" width="425" height="30" as="geometry"/>
    </mxCell>
    
    <mxCell
      id="130"
      value=""
      style="shape=partialRectangle;
      html=1;
      whiteSpace=wrap;
      connectable=0;
      fillColor=none;
      top=0;
      left=0;
      bottom=0;
      right=0;
      overflow=hidden;
      pointerEvents=1;
      strokeColor=inherit;
      fontSize=16;"
      parent="129"
      vertex="1">
      <mxGeometry width="40" height="30" as="geometry">
        <mxRectangle width="40" height="30" as="alternateBounds"/>
      </mxGeometry>
    </mxCell>
    
      <mxCell
        id="131"
        value="STRING NOT NULL"
        style="
          shape=partialRectangle;
          html=1;
          whiteSpace=wrap;
          connectable=0;
          fillColor=none;
          top=0;
          left=0;
          bottom=0;
          right=0;
          align=left;
          spacingLeft=6;
          overflow=hidden;
          strokeColor=inherit;
          fontSize=16;"
          parent="129"
          vertex="1">
            <mxGeometry x="40" width="385" height="30" as="geometry">
              <mxRectangle width="385" height="30" as="alternateBounds"/>
            </mxGeometry>
       </mxCell>
    <mxCell
      id="132"
      value=""
        style="
        shape=tableRow;
        horizontal=0;
        startSize=0;
        swimlaneHead=0;
        swimlaneBody=0;
        top=0;
        left=0;
        bottom=0;
        right=0;
        collapsible=0;
        dropTarget=0;
        fillColor=none;
        points=[[0,0.5],[1,0.5]];
        portConstraint=eastwest;
        strokeColor=inherit;
        fontSize=16;"
        parent="116"
        vertex="1">
      <mxGeometry y="190" width="425" height="30" as="geometry"/>
    </mxCell>
    
    <mxCell
      id="133"
      value=""
      style="shape=partialRectangle;
      html=1;
      whiteSpace=wrap;
      connectable=0;
      fillColor=none;
      top=0;
      left=0;
      bottom=0;
      right=0;
      overflow=hidden;
      pointerEvents=1;
      strokeColor=inherit;
      fontSize=16;"
      parent="132"
      vertex="1">
      <mxGeometry width="40" height="30" as="geometry">
        <mxRectangle width="40" height="30" as="alternateBounds"/>
      </mxGeometry>
    </mxCell>
    
      <mxCell
        id="134"
        value="STRING NOT NULL"
        style="
          shape=partialRectangle;
          html=1;
          whiteSpace=wrap;
          connectable=0;
          fillColor=none;
          top=0;
          left=0;
          bottom=0;
          right=0;
          align=left;
          spacingLeft=6;
          overflow=hidden;
          strokeColor=inherit;
          fontSize=16;"
          parent="132"
          vertex="1">
            <mxGeometry x="40" width="385" height="30" as="geometry">
              <mxRectangle width="385" height="30" as="alternateBounds"/>
            </mxGeometry>
       </mxCell>
    <mxCell
      id="135"
      value=""
        style="
        shape=tableRow;
        horizontal=0;
        startSize=0;
        swimlaneHead=0;
        swimlaneBody=0;
        top=0;
        left=0;
        bottom=0;
        right=0;
        collapsible=0;
        dropTarget=0;
        fillColor=none;
        points=[[0,0.5],[1,0.5]];
        portConstraint=eastwest;
        strokeColor=inherit;
        fontSize=16;"
        parent="116"
        vertex="1">
      <mxGeometry y="220" width="425" height="30" as="geometry"/>
    </mxCell>
    
    <mxCell
      id="136"
      value=""
      style="shape=partialRectangle;
      html=1;
      whiteSpace=wrap;
      connectable=0;
      fillColor=none;
      top=0;
      left=0;
      bottom=0;
      right=0;
      overflow=hidden;
      pointerEvents=1;
      strokeColor=inherit;
      fontSize=16;"
      parent="135"
      vertex="1">
      <mxGeometry width="40" height="30" as="geometry">
        <mxRectangle width="40" height="30" as="alternateBounds"/>
      </mxGeometry>
    </mxCell>
    
      <mxCell
        id="137"
        value="BOOLEAN NOT NULL"
        style="
          shape=partialRectangle;
          html=1;
          whiteSpace=wrap;
          connectable=0;
          fillColor=none;
          top=0;
          left=0;
          bottom=0;
          right=0;
          align=left;
          spacingLeft=6;
          overflow=hidden;
          strokeColor=inherit;
          fontSize=16;"
          parent="135"
          vertex="1">
            <mxGeometry x="40" width="385" height="30" as="geometry">
              <mxRectangle width="385" height="30" as="alternateBounds"/>
            </mxGeometry>
       </mxCell>
    
    <mxCell
    id="138"
    value="[object Object],[object Object],[object Object],false,Workers,,,[object Object],,[object Object],[object Set],[object Object],false,[object Object],[object Object],true,true,[object Set],[object Set],[object Object],[object Object],[object Object],[object Object],false,false,true,[object Object],id,id,id,true,(key) => this.primaryKeyAttributes.includes(key),[object Object],id,[object Object],defaultScope"
    style="shape=table;
    startSize=30;
    container=1;
    collapsible=0;
    childLayout=tableLayout;
    fixedRows=1;
    rowLines=0;
    fontStyle=0;
    strokeColor=default;
    fontSize=16;"
    parent="1"
    vertex="1">
      <mxGeometry x="40" y="740" width="400" height="310" as="geometry"/>
    </mxCell>
    
    <mxCell
      id="139"
      value=""
        style="
        shape=tableRow;
        horizontal=0;
        startSize=0;
        swimlaneHead=0;
        swimlaneBody=0;
        top=0;
        left=0;
        bottom=0;
        right=0;
        collapsible=0;
        dropTarget=0;
        fillColor=none;
        points=[[0,0.5],[1,0.5]];
        portConstraint=eastwest;
        strokeColor=inherit;
        fontSize=16;"
        parent="138"
        vertex="1">
      <mxGeometry y="40" width="400" height="30" as="geometry"/>
    </mxCell>
    
    <mxCell
      id="140"
      value="PK"
      style="shape=partialRectangle;
      html=1;
      whiteSpace=wrap;
      connectable=0;
      fillColor=none;
      top=0;
      left=0;
      bottom=0;
      right=0;
      overflow=hidden;
      pointerEvents=1;
      strokeColor=inherit;
      fontSize=16;"
      parent="139"
      vertex="1">
      <mxGeometry width="40" height="30" as="geometry">
        <mxRectangle width="40" height="30" as="alternateBounds"/>
      </mxGeometry>
    </mxCell>
    
      <mxCell
        id="141"
        value="INTEGER  AUTO INCREMENT"
        style="
          shape=partialRectangle;
          html=1;
          whiteSpace=wrap;
          connectable=0;
          fillColor=none;
          top=0;
          left=0;
          bottom=0;
          right=0;
          align=left;
          spacingLeft=6;
          overflow=hidden;
          strokeColor=inherit;
          fontSize=16;"
          parent="139"
          vertex="1">
            <mxGeometry x="40" width="360" height="30" as="geometry">
              <mxRectangle width="360" height="30" as="alternateBounds"/>
            </mxGeometry>
       </mxCell>
    <mxCell
      id="142"
      value=""
        style="
        shape=tableRow;
        horizontal=0;
        startSize=0;
        swimlaneHead=0;
        swimlaneBody=0;
        top=0;
        left=0;
        bottom=0;
        right=0;
        collapsible=0;
        dropTarget=0;
        fillColor=none;
        points=[[0,0.5],[1,0.5]];
        portConstraint=eastwest;
        strokeColor=inherit;
        fontSize=16;"
        parent="138"
        vertex="1">
      <mxGeometry y="70" width="400" height="30" as="geometry"/>
    </mxCell>
    
    <mxCell
      id="143"
      value=""
      style="shape=partialRectangle;
      html=1;
      whiteSpace=wrap;
      connectable=0;
      fillColor=none;
      top=0;
      left=0;
      bottom=0;
      right=0;
      overflow=hidden;
      pointerEvents=1;
      strokeColor=inherit;
      fontSize=16;"
      parent="142"
      vertex="1">
      <mxGeometry width="40" height="30" as="geometry">
        <mxRectangle width="40" height="30" as="alternateBounds"/>
      </mxGeometry>
    </mxCell>
    
      <mxCell
        id="144"
        value="STRING NOT NULL"
        style="
          shape=partialRectangle;
          html=1;
          whiteSpace=wrap;
          connectable=0;
          fillColor=none;
          top=0;
          left=0;
          bottom=0;
          right=0;
          align=left;
          spacingLeft=6;
          overflow=hidden;
          strokeColor=inherit;
          fontSize=16;"
          parent="142"
          vertex="1">
            <mxGeometry x="40" width="360" height="30" as="geometry">
              <mxRectangle width="360" height="30" as="alternateBounds"/>
            </mxGeometry>
       </mxCell>
    <mxCell
      id="145"
      value=""
        style="
        shape=tableRow;
        horizontal=0;
        startSize=0;
        swimlaneHead=0;
        swimlaneBody=0;
        top=0;
        left=0;
        bottom=0;
        right=0;
        collapsible=0;
        dropTarget=0;
        fillColor=none;
        points=[[0,0.5],[1,0.5]];
        portConstraint=eastwest;
        strokeColor=inherit;
        fontSize=16;"
        parent="138"
        vertex="1">
      <mxGeometry y="100" width="400" height="30" as="geometry"/>
    </mxCell>
    
    <mxCell
      id="146"
      value=""
      style="shape=partialRectangle;
      html=1;
      whiteSpace=wrap;
      connectable=0;
      fillColor=none;
      top=0;
      left=0;
      bottom=0;
      right=0;
      overflow=hidden;
      pointerEvents=1;
      strokeColor=inherit;
      fontSize=16;"
      parent="145"
      vertex="1">
      <mxGeometry width="40" height="30" as="geometry">
        <mxRectangle width="40" height="30" as="alternateBounds"/>
      </mxGeometry>
    </mxCell>
    
      <mxCell
        id="147"
        value="STRING "
        style="
          shape=partialRectangle;
          html=1;
          whiteSpace=wrap;
          connectable=0;
          fillColor=none;
          top=0;
          left=0;
          bottom=0;
          right=0;
          align=left;
          spacingLeft=6;
          overflow=hidden;
          strokeColor=inherit;
          fontSize=16;"
          parent="145"
          vertex="1">
            <mxGeometry x="40" width="360" height="30" as="geometry">
              <mxRectangle width="360" height="30" as="alternateBounds"/>
            </mxGeometry>
       </mxCell>
    <mxCell
      id="148"
      value=""
        style="
        shape=tableRow;
        horizontal=0;
        startSize=0;
        swimlaneHead=0;
        swimlaneBody=0;
        top=0;
        left=0;
        bottom=0;
        right=0;
        collapsible=0;
        dropTarget=0;
        fillColor=none;
        points=[[0,0.5],[1,0.5]];
        portConstraint=eastwest;
        strokeColor=inherit;
        fontSize=16;"
        parent="138"
        vertex="1">
      <mxGeometry y="130" width="400" height="30" as="geometry"/>
    </mxCell>
    
    <mxCell
      id="149"
      value=""
      style="shape=partialRectangle;
      html=1;
      whiteSpace=wrap;
      connectable=0;
      fillColor=none;
      top=0;
      left=0;
      bottom=0;
      right=0;
      overflow=hidden;
      pointerEvents=1;
      strokeColor=inherit;
      fontSize=16;"
      parent="148"
      vertex="1">
      <mxGeometry width="40" height="30" as="geometry">
        <mxRectangle width="40" height="30" as="alternateBounds"/>
      </mxGeometry>
    </mxCell>
    
      <mxCell
        id="150"
        value="STRING "
        style="
          shape=partialRectangle;
          html=1;
          whiteSpace=wrap;
          connectable=0;
          fillColor=none;
          top=0;
          left=0;
          bottom=0;
          right=0;
          align=left;
          spacingLeft=6;
          overflow=hidden;
          strokeColor=inherit;
          fontSize=16;"
          parent="148"
          vertex="1">
            <mxGeometry x="40" width="360" height="30" as="geometry">
              <mxRectangle width="360" height="30" as="alternateBounds"/>
            </mxGeometry>
       </mxCell>
    <mxCell
      id="151"
      value=""
        style="
        shape=tableRow;
        horizontal=0;
        startSize=0;
        swimlaneHead=0;
        swimlaneBody=0;
        top=0;
        left=0;
        bottom=0;
        right=0;
        collapsible=0;
        dropTarget=0;
        fillColor=none;
        points=[[0,0.5],[1,0.5]];
        portConstraint=eastwest;
        strokeColor=inherit;
        fontSize=16;"
        parent="138"
        vertex="1">
      <mxGeometry y="160" width="400" height="30" as="geometry"/>
    </mxCell>
    
    <mxCell
      id="152"
      value=""
      style="shape=partialRectangle;
      html=1;
      whiteSpace=wrap;
      connectable=0;
      fillColor=none;
      top=0;
      left=0;
      bottom=0;
      right=0;
      overflow=hidden;
      pointerEvents=1;
      strokeColor=inherit;
      fontSize=16;"
      parent="151"
      vertex="1">
      <mxGeometry width="40" height="30" as="geometry">
        <mxRectangle width="40" height="30" as="alternateBounds"/>
      </mxGeometry>
    </mxCell>
    
      <mxCell
        id="153"
        value="STRING "
        style="
          shape=partialRectangle;
          html=1;
          whiteSpace=wrap;
          connectable=0;
          fillColor=none;
          top=0;
          left=0;
          bottom=0;
          right=0;
          align=left;
          spacingLeft=6;
          overflow=hidden;
          strokeColor=inherit;
          fontSize=16;"
          parent="151"
          vertex="1">
            <mxGeometry x="40" width="360" height="30" as="geometry">
              <mxRectangle width="360" height="30" as="alternateBounds"/>
            </mxGeometry>
       </mxCell>
    <mxCell
      id="154"
      value=""
        style="
        shape=tableRow;
        horizontal=0;
        startSize=0;
        swimlaneHead=0;
        swimlaneBody=0;
        top=0;
        left=0;
        bottom=0;
        right=0;
        collapsible=0;
        dropTarget=0;
        fillColor=none;
        points=[[0,0.5],[1,0.5]];
        portConstraint=eastwest;
        strokeColor=inherit;
        fontSize=16;"
        parent="138"
        vertex="1">
      <mxGeometry y="190" width="400" height="30" as="geometry"/>
    </mxCell>
    
    <mxCell
      id="155"
      value=""
      style="shape=partialRectangle;
      html=1;
      whiteSpace=wrap;
      connectable=0;
      fillColor=none;
      top=0;
      left=0;
      bottom=0;
      right=0;
      overflow=hidden;
      pointerEvents=1;
      strokeColor=inherit;
      fontSize=16;"
      parent="154"
      vertex="1">
      <mxGeometry width="40" height="30" as="geometry">
        <mxRectangle width="40" height="30" as="alternateBounds"/>
      </mxGeometry>
    </mxCell>
    
      <mxCell
        id="156"
        value="STRING "
        style="
          shape=partialRectangle;
          html=1;
          whiteSpace=wrap;
          connectable=0;
          fillColor=none;
          top=0;
          left=0;
          bottom=0;
          right=0;
          align=left;
          spacingLeft=6;
          overflow=hidden;
          strokeColor=inherit;
          fontSize=16;"
          parent="154"
          vertex="1">
            <mxGeometry x="40" width="360" height="30" as="geometry">
              <mxRectangle width="360" height="30" as="alternateBounds"/>
            </mxGeometry>
       </mxCell>
    <mxCell
      id="157"
      value=""
        style="
        shape=tableRow;
        horizontal=0;
        startSize=0;
        swimlaneHead=0;
        swimlaneBody=0;
        top=0;
        left=0;
        bottom=0;
        right=0;
        collapsible=0;
        dropTarget=0;
        fillColor=none;
        points=[[0,0.5],[1,0.5]];
        portConstraint=eastwest;
        strokeColor=inherit;
        fontSize=16;"
        parent="138"
        vertex="1">
      <mxGeometry y="220" width="400" height="30" as="geometry"/>
    </mxCell>
    
    <mxCell
      id="158"
      value=""
      style="shape=partialRectangle;
      html=1;
      whiteSpace=wrap;
      connectable=0;
      fillColor=none;
      top=0;
      left=0;
      bottom=0;
      right=0;
      overflow=hidden;
      pointerEvents=1;
      strokeColor=inherit;
      fontSize=16;"
      parent="157"
      vertex="1">
      <mxGeometry width="40" height="30" as="geometry">
        <mxRectangle width="40" height="30" as="alternateBounds"/>
      </mxGeometry>
    </mxCell>
    
      <mxCell
        id="159"
        value="DATE "
        style="
          shape=partialRectangle;
          html=1;
          whiteSpace=wrap;
          connectable=0;
          fillColor=none;
          top=0;
          left=0;
          bottom=0;
          right=0;
          align=left;
          spacingLeft=6;
          overflow=hidden;
          strokeColor=inherit;
          fontSize=16;"
          parent="157"
          vertex="1">
            <mxGeometry x="40" width="360" height="30" as="geometry">
              <mxRectangle width="360" height="30" as="alternateBounds"/>
            </mxGeometry>
       </mxCell>
    <mxCell
      id="160"
      value=""
        style="
        shape=tableRow;
        horizontal=0;
        startSize=0;
        swimlaneHead=0;
        swimlaneBody=0;
        top=0;
        left=0;
        bottom=0;
        right=0;
        collapsible=0;
        dropTarget=0;
        fillColor=none;
        points=[[0,0.5],[1,0.5]];
        portConstraint=eastwest;
        strokeColor=inherit;
        fontSize=16;"
        parent="138"
        vertex="1">
      <mxGeometry y="250" width="400" height="30" as="geometry"/>
    </mxCell>
    
    <mxCell
      id="161"
      value=""
      style="shape=partialRectangle;
      html=1;
      whiteSpace=wrap;
      connectable=0;
      fillColor=none;
      top=0;
      left=0;
      bottom=0;
      right=0;
      overflow=hidden;
      pointerEvents=1;
      strokeColor=inherit;
      fontSize=16;"
      parent="160"
      vertex="1">
      <mxGeometry width="40" height="30" as="geometry">
        <mxRectangle width="40" height="30" as="alternateBounds"/>
      </mxGeometry>
    </mxCell>
    
      <mxCell
        id="162"
        value="BOOLEAN NOT NULL"
        style="
          shape=partialRectangle;
          html=1;
          whiteSpace=wrap;
          connectable=0;
          fillColor=none;
          top=0;
          left=0;
          bottom=0;
          right=0;
          align=left;
          spacingLeft=6;
          overflow=hidden;
          strokeColor=inherit;
          fontSize=16;"
          parent="160"
          vertex="1">
            <mxGeometry x="40" width="360" height="30" as="geometry">
              <mxRectangle width="360" height="30" as="alternateBounds"/>
            </mxGeometry>
       </mxCell>
    <mxCell
      id="163"
      value=""
        style="
        shape=tableRow;
        horizontal=0;
        startSize=0;
        swimlaneHead=0;
        swimlaneBody=0;
        top=0;
        left=0;
        bottom=0;
        right=0;
        collapsible=0;
        dropTarget=0;
        fillColor=none;
        points=[[0,0.5],[1,0.5]];
        portConstraint=eastwest;
        strokeColor=inherit;
        fontSize=16;"
        parent="138"
        vertex="1">
      <mxGeometry y="280" width="400" height="30" as="geometry"/>
    </mxCell>
    
    <mxCell
      id="164"
      value=""
      style="shape=partialRectangle;
      html=1;
      whiteSpace=wrap;
      connectable=0;
      fillColor=none;
      top=0;
      left=0;
      bottom=0;
      right=0;
      overflow=hidden;
      pointerEvents=1;
      strokeColor=inherit;
      fontSize=16;"
      parent="163"
      vertex="1">
      <mxGeometry width="40" height="30" as="geometry">
        <mxRectangle width="40" height="30" as="alternateBounds"/>
      </mxGeometry>
    </mxCell>
    
      <mxCell
        id="165"
        value="BOOLEAN NOT NULL"
        style="
          shape=partialRectangle;
          html=1;
          whiteSpace=wrap;
          connectable=0;
          fillColor=none;
          top=0;
          left=0;
          bottom=0;
          right=0;
          align=left;
          spacingLeft=6;
          overflow=hidden;
          strokeColor=inherit;
          fontSize=16;"
          parent="163"
          vertex="1">
            <mxGeometry x="40" width="360" height="30" as="geometry">
              <mxRectangle width="360" height="30" as="alternateBounds"/>
            </mxGeometry>
       </mxCell>
    
            </root>
        </mxGraphModel>
    </diagram>
</mxfile>